<?xml version="1.0" encoding="UTF-8" standalone="no"?>
<svg width="509px" height="311px" viewBox="0 0 509 311" version="1.1" xmlns="http://www.w3.org/2000/svg" xmlns:xlink="http://www.w3.org/1999/xlink" xmlns:sketch="http://www.bohemiancoding.com/sketch/ns">
    <!-- Generator: Sketch 3.3 (11970) - http://www.bohemiancoding.com/sketch -->
    <title>Line + Line Copy 2 + Group</title>
    <desc>Created with Sketch.</desc>
    <defs></defs>
    <g id="Page-1" stroke="none" stroke-width="1" fill="none" fill-rule="evenodd" sketch:type="MSPage">
        <g id="icon_512x512@2x" sketch:type="MSArtboardGroup" transform="translate(-391.000000, -87.000000)" stroke-linecap="round">
            <g id="Line-+-Line-Copy-2-+-Group" sketch:type="MSLayerGroup" transform="translate(393.000000, 87.000000)">
                <path d="M0.145624372,148.218091 C0.0395931177,147.661901 0.254579265,147.069126 0.744900592,146.717374 L122.625638,59.2811926 C123.298767,58.7982959 124.235911,58.9525095 124.718807,59.6256382 C125.201704,60.2987669 125.047491,61.2359107 124.374362,61.7188074 L3.7996033,148.218091 L124.374362,234.717374 C125.047491,235.200271 125.201704,236.137414 124.718807,236.810543 C124.235911,237.483672 123.298767,237.637885 122.625638,237.154989 L0.744900592,149.718807 C0.254579265,149.367055 0.0395931177,148.77428 0.145624372,148.218091 Z" id="Line" stroke="#BD0FE1" stroke-width="3" sketch:type="MSShapeGroup"></path>
                <path d="M380.145624,148.218091 C380.039593,147.661901 380.254579,147.069126 380.744901,146.717374 L502.625638,59.2811926 C503.298767,58.7982959 504.235911,58.9525095 504.718807,59.6256382 C505.201704,60.2987669 505.047491,61.2359107 504.374362,61.7188074 L383.799603,148.218091 L504.374362,234.717374 C505.047491,235.200271 505.201704,236.137414 504.718807,236.810543 C504.235911,237.483672 503.298767,237.637885 502.625638,237.154989 L380.744901,149.718807 C380.254579,149.367055 380.039593,148.77428 380.145624,148.218091 Z" id="Line-Copy-2" stroke="#BD0FE1" stroke-width="3" sketch:type="MSShapeGroup" transform="translate(442.559631, 148.218091) scale(-1, 1) translate(-442.559631, -148.218091) "></path>
                <g id="Group" transform="translate(168.000000, 0.000000)" stroke="#E8E8E8" sketch:type="MSShapeGroup">
                    <path d="M89,156.5 L89,308.5" id="Line" stroke-width="4"></path>
                    <path d="M0.5,146.5 C0.5,146.5 30.2748964,176.810978 40.3641129,195.384308 C47.383611,208.306566 52.2858278,214.374122 65.4031012,245.198722 C78.5203745,276.023322 88.5,308.5 88.5,308.5" id="Line-Copy-3" stroke-width="4"></path>
                    <path d="M1,57.7922616 C1,57.7922616 32.007493,95.8007431 44.4990044,115.787161 C47.5135159,120.61038 50.9234667,128.268043 53.0881996,134.722376 C55.1185025,140.775896 56,145.792262 56,145.792262 L92.8020442,146" id="Line-Copy-4" stroke-width="4" transform="translate(46.901022, 101.896131) scale(1, -1) translate(-46.901022, -101.896131) "></path>
                    <path d="M144,2.83106871e-14 L129,50 L55,50 L39.7817149,0.187528645" id="Rectangle-1" stroke-width="4" stroke-linejoin="round"></path>
                    <path d="M96,156.5 L96,308.5" id="Line" stroke-width="4" transform="translate(96.000000, 232.500000) scale(-1, 1) translate(-96.000000, -232.500000) "></path>
                    <path d="M95.5,146.5 C95.5,146.5 125.274896,176.810978 135.364113,195.384308 C142.383611,208.306566 147.285828,214.374122 160.403101,245.198722 C173.520375,276.023322 183.5,308.5 183.5,308.5" id="Line-Copy-3" stroke-width="4" transform="translate(139.500000, 227.500000) scale(-1, 1) translate(-139.500000, -227.500000) "></path>
                    <path d="M91.1979558,57.7922616 C91.1979558,57.7922616 122.205449,95.8007431 134.69696,115.787161 C137.711472,120.61038 141.121423,128.268043 143.286155,134.722376 C145.316458,140.775896 146.197956,145.792262 146.197956,145.792262 L183,146" id="Line-Copy-4" stroke-width="4" transform="translate(137.098978, 101.896131) scale(-1, -1) translate(-137.098978, -101.896131) "></path>
                    <path d="M75.9401008,144.593564 C77.8146993,150.162084 85.5763412,154.889095 88.4512273,155.529486 C91.3261134,156.169877 95.016687,155.468169 95.1082461,155.448233 C102.52634,153.832991 108.081418,147.228228 108.081418,139.326007 C108.081418,130.213309 100.694116,122.826007 91.5814179,122.826007 C83.1120507,122.826007 76.1330632,129.207081 75.1898799,137.423803" id="Oval-2" stroke-width="3" transform="translate(91.635649, 139.312215) rotate(-85.000000) translate(-91.635649, -139.312215) "></path>
                </g>
            </g>
        </g>
    </g>
</svg>