<?xml version="1.0" encoding="UTF-8" standalone="no"?>
<svg width="340px" height="177px" viewBox="0 0 340 177" version="1.1" xmlns="http://www.w3.org/2000/svg" xmlns:xlink="http://www.w3.org/1999/xlink" xmlns:sketch="http://www.bohemiancoding.com/sketch/ns">
    <!-- Generator: Sketch 3.3 (11970) - http://www.bohemiancoding.com/sketch -->
    <title>Line + Rectangle 2 + Line + Oval 3</title>
    <desc>Created with Sketch.</desc>
    <defs></defs>
    <g id="Page-1" stroke="none" stroke-width="1" fill="none" fill-rule="evenodd" sketch:type="MSPage">
        <g id="icon_512x512@2x" sketch:type="MSArtboardGroup" transform="translate(-420.000000, -525.000000)">
            <g id="Line-+-Rectangle-2-+-Line-+-Oval-3" sketch:type="MSLayerGroup" transform="translate(420.000000, 525.000000)">
                <path d="M95.5,120.5 L95.5,173.5 C95.5,173.5 144.831393,154.368483 171.997089,154.802725 C202.393382,155.288607 243.185968,173.260372 243.185968,173.260372 L243.703373,120.446926" id="Line" stroke="#E8E8E8" stroke-width="4" stroke-linecap="round" sketch:type="MSShapeGroup"></path>
                <g id="Rectangle-2-+-Line-+-Oval-3" sketch:type="MSShapeGroup">
                    <path d="M170,0.216355931 L339.705627,73.0450134 L170,145.873671 L0.294372515,73.0450134 L170,0.216355931 Z" id="Rectangle-2" stroke="#E8E8E8" stroke-width="5" stroke-linecap="round" stroke-linejoin="round"></path>
                    <path d="M177.5,75.4053218 L250.5,110.166227" id="Line" stroke="#F8E81C" stroke-width="4" stroke-linecap="round"></path>
                    <path d="M251,158.499999 L251,110.166227" id="Line-Copy-5" stroke="#F8E81C" stroke-width="4" stroke-linecap="round"></path>
                    <path d="M256.5,161.499999 L251.5,171.5" id="Line-Copy-7" stroke="#F8E81C" stroke-width="3" stroke-linecap="round" transform="translate(254.000000, 166.905322) scale(-1, 1) translate(-254.000000, -166.905322) "></path>
                    <path d="M249.5,161.499999 L244.5,171.5" id="Line-Copy-8" stroke="#F8E81C" stroke-width="3" stroke-linecap="round"></path>
                    <path d="M250.5,163.499999 L250.5,173.5" id="Line-Copy-9" stroke="#F8E81C" stroke-width="3" stroke-linecap="round"></path>
                    <path d="M178,71.7575725 C178,69.8614818 174.418278,68.3243966 170,68.3243966 C165.581722,68.3243966 162,69.8614818 162,71.7575725 C162,73.6536631 165.581722,75.1907483 170,75.1907483 C174.418278,75.1907483 178,73.6536631 178,71.7575725 Z" id="Oval-3" stroke="#E8E8E8" stroke-width="4"></path>
                </g>
            </g>
        </g>
    </g>
</svg>