<?xml version="1.0" encoding="UTF-8" standalone="no"?>
<svg width="251px" height="67px" viewBox="0 0 251 67" version="1.1" xmlns="http://www.w3.org/2000/svg" xmlns:xlink="http://www.w3.org/1999/xlink" xmlns:sketch="http://www.bohemiancoding.com/sketch/ns">
    <!-- Generator: Sketch 3.3 (11970) - http://www.bohemiancoding.com/sketch -->
    <title>my UNB + Path + Path</title>
    <desc>Created with Sketch.</desc>
    <defs></defs>
    <g id="Page-1" stroke="none" stroke-width="1" fill="none" fill-rule="evenodd" sketch:type="MSPage">
        <g id="my-UNB-+-Path-+-Path" sketch:type="MSLayerGroup">
            <path d="M103.476375,0.165810966 L114.480281,0.165810966 L114.480281,32.0173735 C114.480281,35.5798913 114.902152,38.1814278 115.745906,39.822061 C117.058413,42.7283255 119.917759,44.181436 124.324031,44.181436 C128.706866,44.181436 131.554493,42.7283255 132.867,39.822061 C133.710754,38.1814278 134.132625,35.5798913 134.132625,32.0173735 L134.132625,0.165810966 L145.136531,0.165810966 L145.136531,32.0173735 C145.136531,37.5252135 144.281071,41.8142331 142.570125,44.884561 C139.382609,50.5095891 133.300639,53.322061 124.324031,53.322061 C115.347424,53.322061 109.253735,50.5095891 106.042781,44.884561 C104.331835,41.8142331 103.476375,37.5252135 103.476375,32.0173735 L103.476375,0.165810966 Z M155.296687,0.165810966 L166.652156,0.165810966 L187.288875,36.3415922 L187.288875,0.165810966 L197.378719,0.165810966 L197.378719,51.9861235 L186.550594,51.9861235 L165.386531,15.1775297 L165.386531,51.9861235 L155.296687,51.9861235 L155.296687,0.165810966 Z M217.980281,9.16581097 L217.980281,20.5915922 L230.706844,20.5915922 C232.980293,20.5915922 234.825977,20.1638621 236.243953,19.3083891 C237.661929,18.4529161 238.370906,16.9353531 238.370906,14.7556547 C238.370906,12.3415801 237.433416,10.7478461 235.558406,9.97440472 C233.941211,9.43533952 231.878731,9.16581097 229.370906,9.16581097 L217.980281,9.16581097 Z M217.980281,29.1697172 L217.980281,42.9861235 L230.706844,42.9861235 C232.980293,42.9861235 234.749806,42.681439 236.015437,42.072061 C238.312324,40.9470553 239.46075,38.7908269 239.46075,35.603311 C239.46075,32.907985 238.34748,31.056441 236.120906,30.0486235 C234.878713,29.4861207 233.132636,29.1931548 230.882625,29.1697172 L217.980281,29.1697172 Z M246.316219,5.68534222 C247.909977,7.88847823 248.706844,10.5251706 248.706844,13.5954985 C248.706844,16.7595768 247.909977,19.3025201 246.316219,21.2244047 C245.425589,22.3025351 244.113102,23.2869003 242.378719,24.1775297 C245.027169,25.138472 247.025196,26.6618943 248.372859,28.7478422 C249.720522,30.8337901 250.394344,33.3650148 250.394344,36.3415922 C250.394344,39.4119201 249.620914,42.1657988 248.074031,44.603311 C247.089651,46.2205066 245.859195,47.579868 244.382625,48.681436 C242.718554,49.9470673 240.755683,50.8142461 238.493953,51.2829985 C236.232223,51.7517508 233.777169,51.9861235 231.128719,51.9861235 L207.644344,51.9861235 L207.644344,0.165810966 L232.816219,0.165810966 C239.167813,0.259561435 243.667768,2.09938679 246.316219,5.68534222 L246.316219,5.68534222 Z" id="my-UNB" fill="#D0011B" sketch:type="MSShapeGroup"></path>
            <g id="Path-+-Path" transform="translate(0.000000, 13.000000)" fill="#FFFFFF" sketch:type="MSShapeGroup">
                <path d="M4.928,38.9861235 L0.608,38.9861235 L8.528,1.69012347 L12.848,1.69012347 L11.696,7.30612347 L11.84,7.30612347 C13.3760077,5.14611267 15.2959885,3.50212911 17.6,2.37412347 C19.9040115,1.24611783 22.2799878,0.682123466 24.728,0.682123466 C26.4560086,0.682123466 27.8839944,0.874121546 29.012,1.25812347 C30.1400056,1.64212539 31.0519965,2.15812023 31.748,2.80612347 C32.4440035,3.45412671 32.9719982,4.21011915 33.332,5.07412347 C33.6920018,5.93812779 33.967999,6.87411843 34.16,7.88212347 C35.8880086,5.43411123 37.9279882,3.62212935 40.28,2.44612347 C42.6320118,1.27011759 45.1519866,0.682123466 47.84,0.682123466 C50.3840127,0.682123466 52.3279933,1.10211927 53.672,1.94212347 C55.0160067,2.78212767 55.9519974,3.88611663 56.48,5.25412347 C57.0080026,6.62213031 57.2120006,8.19411459 57.092,9.97012347 C56.9719994,11.7461323 56.7200019,13.5701141 56.336,15.4421235 L51.296,38.9861235 L46.976,38.9861235 L52.448,13.2101235 C52.7360014,11.8661167 52.8680001,10.6661287 52.844,9.61012347 C52.8199999,8.55411819 52.5800023,7.65412719 52.124,6.91012347 C51.6679977,6.16611975 50.9720047,5.59012551 50.036,5.18212347 C49.0999953,4.77412143 47.8640077,4.57012347 46.328,4.57012347 C44.7439921,4.57012347 43.1360082,4.91811999 41.504,5.61412347 C39.8719918,6.31012695 38.360007,7.37811627 36.968,8.81812347 C36.3919971,9.44212659 35.8520025,10.1741193 35.348,11.0141235 C34.8439975,11.8541277 34.4000019,12.7301189 34.016,13.6421235 C33.6319981,14.554128 33.2960014,15.4661189 33.008,16.3781235 C32.7199986,17.290128 32.5040007,18.1301196 32.36,18.8981235 L28.112,38.9861235 L23.792,38.9861235 L29.264,13.2101235 C29.5520014,11.8661167 29.6840001,10.6661287 29.66,9.61012347 C29.6359999,8.55411819 29.3960023,7.65412719 28.94,6.91012347 C28.4839977,6.16611975 27.7880047,5.59012551 26.852,5.18212347 C25.9159953,4.77412143 24.6800077,4.57012347 23.144,4.57012347 C21.5599921,4.57012347 19.9520082,4.91811999 18.32,5.61412347 C16.6879918,6.31012695 15.176007,7.37811627 13.784,8.81812347 C13.2079971,9.44212659 12.6680025,10.1741193 12.164,11.0141235 C11.6599975,11.8541277 11.2160019,12.7301189 10.832,13.6421235 C10.4479981,14.554128 10.1120014,15.4661189 9.824,16.3781235 C9.53599856,17.290128 9.32000072,18.1301196 9.176,18.8981235 L4.928,38.9861235 Z" id="Path"></path>
                <path d="M58.712,49.1381235 C59.2400026,49.2341239 59.803997,49.330123 60.404,49.4261235 C61.004003,49.5221239 61.6159969,49.5701235 62.24,49.5701235 C63.440006,49.5701235 64.5079953,49.1861273 65.444,48.4181235 C66.3800047,47.6501196 67.2079964,46.7261289 67.928,45.6461235 C68.6480036,44.5661181 69.307997,43.4381293 69.908,42.2621235 C70.508003,41.0861176 71.0959971,40.0901275 71.672,39.2741235 L65.192,1.69012347 L70.016,1.69012347 L75.2,33.7301235 L93.92,1.69012347 L98.6,1.69012347 L76.856,38.4821235 C75.463993,40.8341352 74.1920058,42.9461141 73.04,44.8181235 C71.8879942,46.6901328 70.7360058,48.2861169 69.584,49.6061235 C68.4319942,50.9261301 67.2320062,51.93412 65.984,52.6301235 C64.7359938,53.3261269 63.3680074,53.6741235 61.88,53.6741235 C61.1119962,53.6741235 60.3800035,53.6261239 59.684,53.5301235 C58.9879965,53.434123 58.3760026,53.3141242 57.848,53.1701235 L58.712,49.1381235 Z" id="Path"></path>
            </g>
        </g>
    </g>
</svg>