<?xml version="1.0" encoding="UTF-8" standalone="no"?>
<svg width="316px" height="195px" viewBox="0 0 316 195" version="1.1" xmlns="http://www.w3.org/2000/svg" xmlns:xlink="http://www.w3.org/1999/xlink" xmlns:sketch="http://www.bohemiancoding.com/sketch/ns">
    <!-- Generator: Sketch 3.3 (11970) - http://www.bohemiancoding.com/sketch -->
    <title>Group + Group Copy + Group Copy 2</title>
    <desc>Created with Sketch.</desc>
    <defs></defs>
    <g id="Page-1" stroke="none" stroke-width="1" fill="none" fill-rule="evenodd" sketch:type="MSPage">
        <g id="512" sketch:type="MSArtboardGroup" transform="translate(-79.000000, -267.000000)">
            <g id="Group-+-Group-Copy-+-Group-Copy-2" sketch:type="MSLayerGroup" transform="translate(79.000000, 267.000000)">
                <g id="Group" transform="translate(0.000000, 108.000000)" sketch:type="MSShapeGroup">
                    <g id="Rectangle-1-+-Rectangle-2">
                        <path d="M0,40.9414742 C3.55271368e-15,17.2943161 7,0 7,0 L316,0 L316,3.8581171 L10,3.8581171 C10,3.8581171 4,15.042961 4,41.635383 C4,68.227805 10,83.2659531 10,83.2659531 L316,83.2659531 L316,87 L7,87 C7,87 5.32907052e-15,64.5886323 0,40.9414742 Z" id="Rectangle-1" fill="#4990E2"></path>
                        <path d="M6,38.9066346 C6,12.6044231 11,5 11,5 L311,5 L310,9.36665611 C310,9.36665611 311.025369,11.2093161 311.038054,12.1306462 C311.052235,13.1606873 310.065088,14.2362843 310.076701,15.3513926 C310.09704,17.3042933 312.120146,19.378379 312.145437,21.5411824 C312.159103,22.709799 311.168865,23.9043169 311.175066,25.1196145 C311.183674,26.8067584 313.190241,28.53395 313.19501,30.2874862 C313.199008,31.7575822 310.19391,33.2461945 310.180839,34.7452486 C310.1771,35.1740118 312.173803,35.6036292 312.170931,36.0339119 C312.159461,37.752789 311.142694,39.4822831 311.121524,41.2103498 C311.112993,41.9067075 313.104902,42.6028334 313.09723,43.2979394 C313.081422,44.7302119 311.05689,46.1581542 311.024982,47.5748714 C311.002531,48.5716873 312.982474,49.5629461 312.964614,50.5462461 C312.94747,51.4901128 311.926115,52.4266462 311.901072,53.3537222 C311.864425,54.7103815 309.827371,56.046788 309.790257,57.3562849 C309.773656,57.9420029 311.760635,58.5223373 311.75092,59.0966924 C311.73145,60.2478066 310.709527,61.3749033 310.685738,62.4731872 C310.676391,62.9047273 312.668218,63.331819 312.661144,63.7541715 C312.642494,64.8676046 309.6095,65.9481005 309.565375,66.9903293 C309.533281,67.7483821 310.517062,68.4861909 310.514245,69.2017049 C310.51129,69.9524997 309.513549,70.6787468 309.52003,71.3780769 C309.526937,72.1232483 310.551948,72.8378582 310.590794,73.5190399 C310.643551,74.4441353 309.690456,75.307577 309.731928,76.102185 C309.766119,76.7572917 310.828104,77.365612 310.906942,77.9231225 C310.993026,78.5318648 310.043719,79.0800301 310.070917,79.5623807 C310.159185,81.1277829 311,82 311,82 L11,82 C11,82 6,65.2088461 6,38.9066346 Z" id="Rectangle-2" stroke="#E8E8E8" fill="#FFFFFF"></path>
                    </g>
                    <g id="Rectangle-1-+-Rectangle-2-Copy">
                        <path d="M0,40.9414742 C3.55271368e-15,17.2943161 7,0 7,0 L316,0 L316,3.8581171 L10,3.8581171 C10,3.8581171 4,15.042961 4,41.635383 C4,68.227805 10,83.2659531 10,83.2659531 L316,83.2659531 L316,87 L7,87 C7,87 5.32907052e-15,64.5886323 0,40.9414742 Z" id="Rectangle-1" fill="#4990E2"></path>
                        <path d="M6,38.9066346 C6,12.6044231 11,5 11,5 L311,5 L310,9.36665611 C310,9.36665611 311.025369,11.2093161 311.038054,12.1306462 C311.052235,13.1606873 310.065088,14.2362843 310.076701,15.3513926 C310.09704,17.3042933 312.120146,19.378379 312.145437,21.5411824 C312.159103,22.709799 311.168865,23.9043169 311.175066,25.1196145 C311.183674,26.8067584 313.190241,28.53395 313.19501,30.2874862 C313.199008,31.7575822 310.19391,33.2461945 310.180839,34.7452486 C310.1771,35.1740118 312.173803,35.6036292 312.170931,36.0339119 C312.159461,37.752789 311.142694,39.4822831 311.121524,41.2103498 C311.112993,41.9067075 313.104902,42.6028334 313.09723,43.2979394 C313.081422,44.7302119 311.05689,46.1581542 311.024982,47.5748714 C311.002531,48.5716873 312.982474,49.5629461 312.964614,50.5462461 C312.94747,51.4901128 311.926115,52.4266462 311.901072,53.3537222 C311.864425,54.7103815 309.827371,56.046788 309.790257,57.3562849 C309.773656,57.9420029 311.760635,58.5223373 311.75092,59.0966924 C311.73145,60.2478066 310.709527,61.3749033 310.685738,62.4731872 C310.676391,62.9047273 312.668218,63.331819 312.661144,63.7541715 C312.642494,64.8676046 309.6095,65.9481005 309.565375,66.9903293 C309.533281,67.7483821 310.517062,68.4861909 310.514245,69.2017049 C310.51129,69.9524997 309.513549,70.6787468 309.52003,71.3780769 C309.526937,72.1232483 310.551948,72.8378582 310.590794,73.5190399 C310.643551,74.4441353 309.690456,75.307577 309.731928,76.102185 C309.766119,76.7572917 310.828104,77.365612 310.906942,77.9231225 C310.993026,78.5318648 310.043719,79.0800301 310.070917,79.5623807 C310.159185,81.1277829 311,82 311,82 L11,82 C11,82 6,65.2088461 6,38.9066346 Z" id="Rectangle-2" stroke="#E8E8E8" fill="#FFFFFF"></path>
                    </g>
                    <path d="M42.5,19.5 L193.5,19.5" id="Line" stroke="#E8E8E8" stroke-linecap="square"></path>
                    <path d="M112.5,29.5 L263.5,29.5" id="Line-Copy" stroke="#E8E8E8" stroke-linecap="square"></path>
                    <path d="M52.5,29.5 L82.5,29.5" id="Line-Copy-6" stroke="#E8E8E8" stroke-linecap="square"></path>
                    <path d="M262.5,59.5 L292.5,59.5" id="Line-Copy-8" stroke="#E8E8E8" stroke-linecap="square"></path>
                    <path d="M242.5,69.5 L272.5,69.5" id="Line-Copy-10" stroke="#E8E8E8" stroke-linecap="square"></path>
                    <path d="M52.5,69.5 L82.5,69.5" id="Line-Copy-11" stroke="#E8E8E8" stroke-linecap="square"></path>
                    <path d="M82.5,39.5 L283.5,39.5" id="Line-Copy-2" stroke="#E8E8E8" stroke-linecap="square"></path>
                    <path d="M152.5,49.5 L303.5,49.5" id="Line-Copy-3" stroke="#E8E8E8" stroke-linecap="square"></path>
                    <path d="M92.5,59.5 L243.5,59.5" id="Line-Copy-7" stroke="#E8E8E8" stroke-linecap="square"></path>
                    <path d="M222.5,19.5 L303.5,19.5" id="Line-Copy-4" stroke="#E8E8E8" stroke-linecap="square"></path>
                    <path d="M22.5,49.5 L103.5,49.5" id="Line-Copy-5" stroke="#E8E8E8" stroke-linecap="square"></path>
                    <path d="M132.5,69.5 L213.5,69.5" id="Line-Copy-9" stroke="#E8E8E8" stroke-linecap="square"></path>
                </g>
                <g id="Group-Copy" transform="translate(14.000000, 54.000000)" sketch:type="MSShapeGroup">
                    <g id="Rectangle-1-+-Rectangle-2">
                        <path d="M0,25.4119495 C3.24915903e-15,10.7344031 6.40189873,0 6.40189873,0 L289,0 L289,2.39469337 L9.14556962,2.39469337 C9.14556962,2.39469337 3.65822785,9.3370103 3.65822785,25.8426515 C3.65822785,42.3482927 9.14556962,51.6823157 9.14556962,51.6823157 L289,51.6823157 L289,54 L6.40189873,54 C6.40189873,54 4.87373854e-15,40.0894959 0,25.4119495 Z" id="Rectangle-1" fill="#4990E2"></path>
                        <path d="M5.48734177,24.1489456 C5.48734177,7.82343501 10.0601266,3.10344828 10.0601266,3.10344828 L284.427215,3.10344828 L283.512658,5.81378655 C283.512658,5.81378655 284.450417,6.95750657 284.462018,7.52936659 C284.474987,8.16870247 283.572185,8.83631436 283.582806,9.52845057 C283.601407,10.7405959 285.451653,12.0279594 285.474783,13.3703891 C285.487281,14.0957373 284.581652,14.8371622 284.587323,15.5914848 C284.595195,16.6386777 286.430315,17.7107276 286.434677,18.7991294 C286.438333,19.7116028 283.69,20.635569 283.678045,21.5660164 C283.674626,21.8321452 285.500725,22.0988043 285.498099,22.3658763 C285.487608,23.4327656 284.557717,24.5062447 284.538356,25.5788378 C284.530554,26.0110598 286.352268,26.443138 286.345252,26.8745831 C286.330794,27.7635798 284.479244,28.6498888 284.450063,29.5292305 C284.42953,30.1479439 286.2403,30.7632079 286.223966,31.3735321 C286.208287,31.9593804 285.2742,32.540677 285.251297,33.1161034 C285.217781,33.9581678 283.35478,34.7876615 283.320836,35.6004527 C283.305654,35.9640018 285.122859,36.3242094 285.113975,36.6807056 C285.096168,37.3951903 284.161561,38.0947676 284.139805,38.776461 C284.131256,39.0443135 285.952896,39.3094049 285.946426,39.5715547 C285.929369,40.2626511 283.155524,40.9333038 283.115169,41.5802044 C283.085817,42.05072 283.98554,42.5086702 283.982965,42.9527823 C283.980262,43.4187929 283.067771,43.869567 283.073699,44.3036339 C283.080015,44.7661541 284.017446,45.2097051 284.052973,45.6325075 C284.101222,46.2067046 283.229563,46.742634 283.267491,47.235839 C283.29876,47.6424569 284.270006,48.020035 284.342109,48.3660761 C284.420837,48.7439161 283.552641,49.0841566 283.577516,49.3835466 C283.658242,50.3551756 284.427215,50.8965517 284.427215,50.8965517 L10.0601266,50.8965517 C10.0601266,50.8965517 5.48734177,40.4744562 5.48734177,24.1489456 Z" id="Rectangle-2" stroke="#E8E8E8" fill="#FFFFFF"></path>
                    </g>
                    <g id="Rectangle-1-+-Rectangle-2-Copy">
                        <path d="M0,25.4119495 C3.24915903e-15,10.7344031 6.40189873,0 6.40189873,0 L289,0 L289,2.39469337 L9.14556962,2.39469337 C9.14556962,2.39469337 3.65822785,9.3370103 3.65822785,25.8426515 C3.65822785,42.3482927 9.14556962,51.6823157 9.14556962,51.6823157 L289,51.6823157 L289,54 L6.40189873,54 C6.40189873,54 4.87373854e-15,40.0894959 0,25.4119495 Z" id="Rectangle-1" fill="#F8E81C"></path>
                        <path d="M0,25.4119495 C3.24915903e-15,10.7344031 6.40189873,0 6.40189873,0 L289,0 L289,2.39469337 L9.14556962,2.39469337 C9.14556962,2.39469337 3.65822785,9.3370103 3.65822785,25.8426515 C3.65822785,42.3482927 9.14556962,51.6823157 9.14556962,51.6823157 L289,51.6823157 L289,54 L6.40189873,54 C6.40189873,54 4.87373854e-15,40.0894959 0,25.4119495 Z" id="Rectangle-1-Copy" fill="#F8E81C"></path>
                        <path d="M5.48734177,24.1489456 C5.48734177,7.82343501 10.0601266,3.10344828 10.0601266,3.10344828 L284.427215,3.10344828 L283.512658,5.81378655 C283.512658,5.81378655 284.450417,6.95750657 284.462018,7.52936659 C284.474987,8.16870247 283.572185,8.83631436 283.582806,9.52845057 C283.601407,10.7405959 285.451653,12.0279594 285.474783,13.3703891 C285.487281,14.0957373 284.581652,14.8371622 284.587323,15.5914848 C284.595195,16.6386777 286.430315,17.7107276 286.434677,18.7991294 C286.438333,19.7116028 283.69,20.635569 283.678045,21.5660164 C283.674626,21.8321452 285.500725,22.0988043 285.498099,22.3658763 C285.487608,23.4327656 284.557717,24.5062447 284.538356,25.5788378 C284.530554,26.0110598 286.352268,26.443138 286.345252,26.8745831 C286.330794,27.7635798 284.479244,28.6498888 284.450063,29.5292305 C284.42953,30.1479439 286.2403,30.7632079 286.223966,31.3735321 C286.208287,31.9593804 285.2742,32.540677 285.251297,33.1161034 C285.217781,33.9581678 283.35478,34.7876615 283.320836,35.6004527 C283.305654,35.9640018 285.122859,36.3242094 285.113975,36.6807056 C285.096168,37.3951903 284.161561,38.0947676 284.139805,38.776461 C284.131256,39.0443135 285.952896,39.3094049 285.946426,39.5715547 C285.929369,40.2626511 283.155524,40.9333038 283.115169,41.5802044 C283.085817,42.05072 283.98554,42.5086702 283.982965,42.9527823 C283.980262,43.4187929 283.067771,43.869567 283.073699,44.3036339 C283.080015,44.7661541 284.017446,45.2097051 284.052973,45.6325075 C284.101222,46.2067046 283.229563,46.742634 283.267491,47.235839 C283.29876,47.6424569 284.270006,48.020035 284.342109,48.3660761 C284.420837,48.7439161 283.552641,49.0841566 283.577516,49.3835466 C283.658242,50.3551756 284.427215,50.8965517 284.427215,50.8965517 L10.0601266,50.8965517 C10.0601266,50.8965517 5.48734177,40.4744562 5.48734177,24.1489456 Z" id="Rectangle-2" stroke="#E8E8E8" fill="#FFFFFF"></path>
                    </g>
                    <path d="M38.8686709,12.1034483 L176.966772,12.1034483" id="Line" stroke="#E8E8E8" stroke-linecap="square"></path>
                    <path d="M102.887658,18.3103448 L240.985759,18.3103448" id="Line-Copy" stroke="#E8E8E8" stroke-linecap="square"></path>
                    <path d="M48.0142405,18.3103448 L75.4509494,18.3103448" id="Line-Copy-6" stroke="#E8E8E8" stroke-linecap="square"></path>
                    <path d="M240.071203,36.9310345 L267.507911,36.9310345" id="Line-Copy-8" stroke="#E8E8E8" stroke-linecap="square"></path>
                    <path d="M221.780063,43.137931 L249.216772,43.137931" id="Line-Copy-10" stroke="#E8E8E8" stroke-linecap="square"></path>
                    <path d="M48.0142405,43.137931 L75.4509494,43.137931" id="Line-Copy-11" stroke="#E8E8E8" stroke-linecap="square"></path>
                    <path d="M75.4509494,24.5172414 L259.276899,24.5172414" id="Line-Copy-2" stroke="#E8E8E8" stroke-linecap="square"></path>
                    <path d="M139.469937,30.7241379 L277.568038,30.7241379" id="Line-Copy-3" stroke="#E8E8E8" stroke-linecap="square"></path>
                    <path d="M84.596519,36.9310345 L222.69462,36.9310345" id="Line-Copy-7" stroke="#E8E8E8" stroke-linecap="square"></path>
                    <path d="M203.488924,12.1034483 L277.568038,12.1034483" id="Line-Copy-4" stroke="#E8E8E8" stroke-linecap="square"></path>
                    <path d="M20.5775316,30.7241379 L94.6566456,30.7241379" id="Line-Copy-5" stroke="#E8E8E8" stroke-linecap="square"></path>
                    <path d="M121.178797,43.137931 L195.257911,43.137931" id="Line-Copy-9" stroke="#E8E8E8" stroke-linecap="square"></path>
                </g>
                <g id="Group-Copy-2" transform="translate(71.000000, 0.000000)" sketch:type="MSShapeGroup">
                    <g id="Rectangle-1-+-Rectangle-2">
                        <path d="M0,25.4119495 C2.38346614e-15,10.7344031 4.69620253,0 4.69620253,0 L212,0 L212,2.39469337 L6.70886076,2.39469337 C6.70886076,2.39469337 2.6835443,9.3370103 2.6835443,25.8426515 C2.6835443,42.3482927 6.70886076,51.6823157 6.70886076,51.6823157 L212,51.6823157 L212,54 L4.69620253,54 C4.69620253,54 3.57519921e-15,40.0894959 0,25.4119495 Z" id="Rectangle-1" fill="#4990E2"></path>
                        <path d="M4.02531646,24.1489456 C4.02531646,7.82343501 7.37974684,3.10344828 7.37974684,3.10344828 L208.64557,3.10344828 L207.974684,5.81378655 C207.974684,5.81378655 208.66259,6.95750657 208.6711,7.52936659 C208.680614,8.16870247 208.01835,8.83631436 208.026141,9.52845057 C208.039787,10.7405959 209.39706,12.0279594 209.414028,13.3703891 C209.423196,14.0957373 208.758859,14.8371622 208.763019,15.5914848 C208.768794,16.6386777 210.114972,17.7107276 210.118171,18.7991294 C210.120854,19.7116028 208.104775,20.635569 208.096006,21.5660164 C208.093497,21.8321452 209.433057,22.0988043 209.431131,22.3658763 C209.423436,23.4327656 208.741301,24.5062447 208.727099,25.5788378 C208.721375,26.0110598 210.057719,26.443138 210.052572,26.8745831 C210.041967,27.7635798 208.683736,28.6498888 208.66233,29.5292305 C208.647268,30.1479439 209.975584,30.7632079 209.963602,31.3735321 C209.9521,31.9593804 209.266887,32.540677 209.250086,33.1161034 C209.2255,33.9581678 207.858869,34.7876615 207.83397,35.6004527 C207.822833,35.9640018 209.155869,36.3242094 209.149352,36.6807056 C209.13629,37.3951903 208.450695,38.0947676 208.434735,38.776461 C208.428465,39.0443135 209.764754,39.3094049 209.760008,39.5715547 C209.747496,40.2626511 207.712703,40.9333038 207.6831,41.5802044 C207.661568,42.05072 208.321573,42.5086702 208.319684,42.9527823 C208.317701,43.4187929 207.64833,43.869567 207.652679,44.3036339 C207.657312,44.7661541 208.344978,45.2097051 208.371039,45.6325075 C208.406433,46.2067046 207.767015,46.742634 207.794838,47.235839 C207.817776,47.6424569 208.530247,48.020035 208.583139,48.3660761 C208.640891,48.7439161 208.004014,49.0841566 208.022261,49.3835466 C208.081478,50.3551756 208.64557,50.8965517 208.64557,50.8965517 L7.37974684,50.8965517 C7.37974684,50.8965517 4.02531646,40.4744562 4.02531646,24.1489456 Z" id="Rectangle-2" stroke="#E8E8E8" fill="#FFFFFF"></path>
                    </g>
                    <g id="Rectangle-1-+-Rectangle-2-Copy">
                        <path d="M0,25.4119495 C2.38346614e-15,10.7344031 4.69620253,0 4.69620253,0 L212,0 L212,2.39469337 L6.70886076,2.39469337 C6.70886076,2.39469337 2.6835443,9.3370103 2.6835443,25.8426515 C2.6835443,42.3482927 6.70886076,51.6823157 6.70886076,51.6823157 L212,51.6823157 L212,54 L4.69620253,54 C4.69620253,54 3.57519921e-15,40.0894959 0,25.4119495 Z" id="Rectangle-1" fill="#F8E81C"></path>
                        <path d="M0,25.4119495 C2.38346614e-15,10.7344031 4.69620253,0 4.69620253,0 L212,0 L212,2.39469337 L6.70886076,2.39469337 C6.70886076,2.39469337 2.6835443,9.3370103 2.6835443,25.8426515 C2.6835443,42.3482927 6.70886076,51.6823157 6.70886076,51.6823157 L212,51.6823157 L212,54 L4.69620253,54 C4.69620253,54 3.57519921e-15,40.0894959 0,25.4119495 Z" id="Rectangle-1-Copy" fill="#E10F63"></path>
                        <path d="M4.02531646,24.1489456 C4.02531646,7.82343501 7.37974684,3.10344828 7.37974684,3.10344828 L208.64557,3.10344828 L207.974684,5.81378655 C207.974684,5.81378655 208.66259,6.95750657 208.6711,7.52936659 C208.680614,8.16870247 208.01835,8.83631436 208.026141,9.52845057 C208.039787,10.7405959 209.39706,12.0279594 209.414028,13.3703891 C209.423196,14.0957373 208.758859,14.8371622 208.763019,15.5914848 C208.768794,16.6386777 210.114972,17.7107276 210.118171,18.7991294 C210.120854,19.7116028 208.104775,20.635569 208.096006,21.5660164 C208.093497,21.8321452 209.433057,22.0988043 209.431131,22.3658763 C209.423436,23.4327656 208.741301,24.5062447 208.727099,25.5788378 C208.721375,26.0110598 210.057719,26.443138 210.052572,26.8745831 C210.041967,27.7635798 208.683736,28.6498888 208.66233,29.5292305 C208.647268,30.1479439 209.975584,30.7632079 209.963602,31.3735321 C209.9521,31.9593804 209.266887,32.540677 209.250086,33.1161034 C209.2255,33.9581678 207.858869,34.7876615 207.83397,35.6004527 C207.822833,35.9640018 209.155869,36.3242094 209.149352,36.6807056 C209.13629,37.3951903 208.450695,38.0947676 208.434735,38.776461 C208.428465,39.0443135 209.764754,39.3094049 209.760008,39.5715547 C209.747496,40.2626511 207.712703,40.9333038 207.6831,41.5802044 C207.661568,42.05072 208.321573,42.5086702 208.319684,42.9527823 C208.317701,43.4187929 207.64833,43.869567 207.652679,44.3036339 C207.657312,44.7661541 208.344978,45.2097051 208.371039,45.6325075 C208.406433,46.2067046 207.767015,46.742634 207.794838,47.235839 C207.817776,47.6424569 208.530247,48.020035 208.583139,48.3660761 C208.640891,48.7439161 208.004014,49.0841566 208.022261,49.3835466 C208.081478,50.3551756 208.64557,50.8965517 208.64557,50.8965517 L7.37974684,50.8965517 C7.37974684,50.8965517 4.02531646,40.4744562 4.02531646,24.1489456 Z" id="Rectangle-2" stroke="#E8E8E8" fill="#FFFFFF"></path>
                    </g>
                    <path d="M28.5126582,12.1034483 L129.816456,12.1034483" id="Line" stroke="#E8E8E8" stroke-linecap="square"></path>
                    <path d="M75.4746835,18.3103448 L176.778481,18.3103448" id="Line-Copy" stroke="#E8E8E8" stroke-linecap="square"></path>
                    <path d="M35.221519,18.3103448 L55.3481013,18.3103448" id="Line-Copy-6" stroke="#E8E8E8" stroke-linecap="square"></path>
                    <path d="M176.107595,36.9310345 L196.234177,36.9310345" id="Line-Copy-8" stroke="#E8E8E8" stroke-linecap="square"></path>
                    <path d="M162.689873,43.137931 L182.816456,43.137931" id="Line-Copy-10" stroke="#E8E8E8" stroke-linecap="square"></path>
                    <path d="M35.221519,43.137931 L55.3481013,43.137931" id="Line-Copy-11" stroke="#E8E8E8" stroke-linecap="square"></path>
                    <path d="M55.3481013,24.5172414 L190.196203,24.5172414" id="Line-Copy-2" stroke="#E8E8E8" stroke-linecap="square"></path>
                    <path d="M102.310127,30.7241379 L203.613924,30.7241379" id="Line-Copy-3" stroke="#E8E8E8" stroke-linecap="square"></path>
                    <path d="M62.056962,36.9310345 L163.360759,36.9310345" id="Line-Copy-7" stroke="#E8E8E8" stroke-linecap="square"></path>
                    <path d="M149.272152,12.1034483 L203.613924,12.1034483" id="Line-Copy-4" stroke="#E8E8E8" stroke-linecap="square"></path>
                    <path d="M15.0949367,30.7241379 L69.4367089,30.7241379" id="Line-Copy-5" stroke="#E8E8E8" stroke-linecap="square"></path>
                    <path d="M88.8924051,43.137931 L143.234177,43.137931" id="Line-Copy-9" stroke="#E8E8E8" stroke-linecap="square"></path>
                </g>
            </g>
        </g>
    </g>
</svg>