<?xml version="1.0" encoding="utf-8"?>
<!-- Generator: Adobe Illustrator 18.1.1, SVG Export Plug-In . SVG Version: 6.00 Build 0)  -->
<svg version="1.1" id="art" xmlns="http://www.w3.org/2000/svg" xmlns:xlink="http://www.w3.org/1999/xlink" x="0px" y="0px"
	 viewBox="0 0 461.9 96.1" enable-background="new 0 0 461.9 96.1" xml:space="preserve">
<path d="M190.6,31.6h-8.2c-0.8,0-1.4-0.7-1.2-1.5l1.7-9.2l0.8-4.1c0.1-0.8-0.4-1.5-1.2-1.5h-9c-0.8,0-1.6,0.7-1.7,1.5l-0.9,4.8
	l-1.6,8.6l-2.1,12.4l-4.6,25.7c-0.4,1.8-0.5,3.5-0.5,5c0,7.2,3.5,10.8,11.8,10.8c3.7,0,7.3-0.7,9.4-1.2l0.3-0.1
	c0.6-0.1,1-0.6,1.1-1.2l0-0.2l0.8-5l0.1-0.3c0.1-0.8-0.4-1.5-1.2-1.5l-0.3,0c-1.8,0.1-4.1,0.2-5.9,0.2c-3.1,0-4.2-0.5-4.2-2.5
	c0-0.8,0.1-1.9,0.5-3.6l4.8-26.2c0.1-0.8,0.9-1.5,1.7-1.5h8.2c0.8,0,1.6-0.7,1.7-1.5l0-0.3l1-6.2C192,32.3,191.4,31.6,190.6,31.6z
	 M242.5,31.6h-9c-0.8,0-1.6,0.7-1.7,1.5l-0.3,1.5l-0.9,5l-0.8,4.4l-4.4,25.1l-0.1,0.3c-0.1,0.6-0.6,1.2-1.2,1.4l-0.6,0.2
	c-5,1.8-9.3,3-12.8,3c-4,0-5.6-1.2-5.6-4.7c0-1.4,0.3-3.1,0.6-5.3l4.1-23.4L211,34l0.2-0.9c0.1-0.8-0.4-1.5-1.2-1.5H201
	c-0.8,0-1.6,0.7-1.7,1.5l-0.3,1.5l-0.9,5L194,62.9c-0.5,2.6-0.8,5.4-0.8,8c0,7.3,2.8,13.2,13,13.2c5.3,0,10.4-1.6,15.7-4.2l1.1-0.6
	c0.9-0.5,1.2,0,1.1,0.6c0,0-0.1,0.8-0.1,0.8l-0.1,0.5c-0.1,0.8,0.4,1.5,1.2,1.5l0.5,0h7.7l0.4,0c0.8,0,1.6-0.7,1.7-1.5l0.1-0.5
	l6.3-35.8l0.8-4.2l1.2-6.6l0.2-0.9C243.9,32.3,243.4,31.6,242.5,31.6z M374.4,13.5c0.1-0.8-0.4-1.5-1.2-1.5h-8.9
	c-0.8,0-1.6,0.7-1.7,1.5l-0.3,1.5l-0.9,5l-0.6,3.2l-9.9,56.2l-0.3,1.7c-0.1,0.8,0.4,1.5,1.2,1.5l0.5,0h8.1l0.4,0
	c0.8,0,1.6-0.7,1.7-1.5l10.1-57.6l0.4-2.5l1.2-6.6L374.4,13.5z M348.2,31.6h-9c-0.8,0-1.6,0.7-1.7,1.5l-0.3,1.5l-0.9,5l-0.8,4.4
	l-4.5,25.1l-0.1,0.3c-0.1,0.6-0.6,1.2-1.2,1.4l-0.6,0.2c-5,1.8-9.3,3-12.8,3c-4,0-5.6-1.2-5.6-4.7c0-1.4,0.3-3.1,0.6-5.3l4.1-23.4
	l1.2-6.6c0,0,0.1-0.7,0.2-0.9c0.1-0.8-0.4-1.5-1.2-1.5h-8.9c-0.8,0-1.6,0.7-1.7,1.5l-0.3,1.5l-0.9,5l-4.1,23.2
	c-0.5,2.6-0.8,5.4-0.8,8c0,7.3,2.8,13.2,13,13.2c5.3,0,10.4-1.6,15.6-4.2l1.1-0.6c0.9-0.5,1.2,0,1.1,0.6c0,0-0.1,0.8-0.1,0.8
	l-0.1,0.5c-0.1,0.8,0.4,1.5,1.2,1.5l0.5,0h7.6l0.4,0c0.8,0,1.6-0.7,1.7-1.5l0.1-0.5l6.3-35.8l0.8-4.2l1.2-6.6c0,0,0.1-0.7,0.1-0.9
	C349.6,32.3,349.1,31.6,348.2,31.6z M277.7,30.1c-3.1,0-6.6,0.5-10,1.6c0,0-0.9,0.3-1.2,0.4c-1,0.3-1.2,0-1.1-0.6l0.3-1.7l0.5-3.1
	l1-5.6l1.2-6.6l0.1-0.9c0.1-0.8-0.4-1.5-1.2-1.5h-8.9c-0.8,0-1.6,0.7-1.7,1.5l-0.3,1.5l-0.9,5l-1.1,6.3l-9.6,54.9
	c-0.1,0.8,0.3,1.4,1,1.5l1.4,0.2c7.3,0.8,11.6,1.1,17.6,1.1c16.4,0,24.8-5.7,28.1-22.8l1.4-7.2c0.5-2.6,0.5-5.1,0.7-7.3
	C294.9,35.9,289.4,30.1,277.7,30.1z M282.4,52.8l-1.3,7.2c-1.9,10.8-5.5,13.9-14.5,13.9c-3.1,0-7.3-0.3-7.6-0.3
	c-0.3,0-1.1-0.1-0.9-1.5c0.2-1.3,5-27.6,5.2-28.8c0.2-1.1,1.3-1.5,1.3-1.5c3.4-1.2,7.7-1.5,9.8-1.5c6,0,8.6,2,8.6,7.2
	C283,48.9,282.8,50.7,282.4,52.8z M422.1,31.4c-6.6-0.8-14.2-1.2-19.2-1.2c-15.5,0-24.4,3.9-27.9,22.2l-1.4,7.3
	c-0.5,2.5-0.6,5.1-0.6,7.3c0,11.1,5.5,17,15.6,17c4.8,0,9.1-1.1,12.5-2.7l1.1-0.5c0.8-0.5,1.2-0.1,1.1,0.5c-0.1,0.9,0.5,1.4,1.2,1.4
	h8l0.4,0c0.8,0,1.6-0.7,1.7-1.5l0.1-0.5l0.1-0.3l8.3-47.4C423.3,32.2,422.9,31.5,422.1,31.4z M409.8,41.7c-0.7,4-4.4,24.3-5.3,29
	c-0.1,0.5-0.4,1.1-1.2,1.4c-3.1,1.1-6.4,1.9-9.8,1.9c-5.9,0-8.6-2.4-8.6-7.6c0-1.5,0.2-3.1,0.5-5.2l1.4-7.3
	c2.2-11.6,6.6-13.6,14.2-13.6c1.4,0,4.9,0,7.9,0.3C409.8,40.6,409.9,41.3,409.8,41.7z M460.5,30.3c-5.1,0.2-10.3,1.1-14.9,4.2
	c-0.1,0.1-0.4,0.3-0.6,0.4c-0.9,0.5-1.2,0-1.1-0.6l0.2-1.1c0.1-0.8-0.4-1.5-1.2-1.5h-8.4c-0.8,0-1.6,0.7-1.7,1.5l-0.3,1.5l-7.9,44.7
	l-0.3,1.9c-0.1,0.8,0.4,1.5,1.2,1.5l0.5,0h7.6l0.9,0c0.8,0,1.6-0.7,1.7-1.5l0.1-0.5l0.2-1.1l6-33.5l0.1-0.5l0.1-0.3
	c0.1-0.6,0.6-1.2,1.2-1.4l0.6-0.2l0.7-0.2c3.8-1.2,8.9-2.1,13.6-2.3c0.8,0,1.7-0.7,1.8-1.5l1.2-7.5l0.1-0.4
	C462,30.8,461.3,30.3,460.5,30.3z"/>
<path fill="#FF004E" d="M0,58.5c0,6.8,21.1,5.5,21.1,0C21.1,53,0,51.6,0,58.5z M77.5,0c0,23.5-17.5,22-19.8,26
	c-2.5,4.4,7.4,6.9,7.4,14.1c0,10.7-38.1,9.9-38.1,18.3c0,8.6,50.5,8.2,50.5,37.6l67-48L77.5,0z"/>
</svg>
