<?xml version="1.0" encoding="UTF-8" standalone="no"?>
<svg width="427px" height="275px" viewBox="0 0 427 275" version="1.1" xmlns="http://www.w3.org/2000/svg" xmlns:xlink="http://www.w3.org/1999/xlink" xmlns:sketch="http://www.bohemiancoding.com/sketch/ns">
    <!-- Generator: Sketch 3.3 (11970) - http://www.bohemiancoding.com/sketch -->
    <title>Group</title>
    <desc>Created with Sketch.</desc>
    <defs></defs>
    <g id="Page-1" stroke="none" stroke-width="1" fill="none" fill-rule="evenodd" sketch:type="MSPage">
        <g id="Group" sketch:type="MSLayerGroup">
            <path d="M67,118 L92,118 L92,118 L92,124 L92,124 L67,124 L67,118 Z M62,118 L32,118 L32,124 L62,124 L62,118 Z M67,134 L92,134 L92,134 L92,128 L92,128 L67,128 L67,134 Z M62,134 L32,134 L32,128 L62,128 L62,134 Z M67,106 L87.0004714,106 C89.7616348,106 92,108.231557 92,111.009385 L92,114 L92,114 L67,114 L67,106 Z M62,106 L36.9995286,106 C34.2425656,106 32,108.242778 32,111.009385 L32,114 L62,114 L62,106 Z M62,138 L32,138 L32,145.990615 C32,148.768443 34.2383652,151 36.9995286,151 L87.0004714,151 C89.7574344,151 92,148.757222 92,145.990615 L92,138 L92,138 L67,138 L67,151 L62,151 L62,138 Z" id="Rectangle-11" stroke="#C1B40C" fill="#C1B40C" sketch:type="MSShapeGroup"></path>
            <rect id="Rectangle-1" stroke="#E8E8E8" stroke-width="5" sketch:type="MSShapeGroup" x="0" y="0" width="427" height="275" rx="20"></rect>
            <path d="M81.6473947,67 C84.403588,62.6639491 86,57.5184056 86,52 C86,48.4768085 85.3492859,45.1055995 84.1614847,42 L84.1614847,42 L31.8385153,42 C30.6507141,45.1055995 30,48.4768085 30,52 C30,57.5184056 31.596412,62.6639491 34.3526053,67 L81.6473947,67 Z M77.5959309,72 C72.5457825,76.9487481 65.6292203,80 58,80 C50.3707797,80 43.4542175,76.9487481 38.4040691,72 L77.5959309,72 Z M81.6473947,37 C76.6800348,29.1853358 67.9455674,24 58,24 C48.0544326,24 39.3199652,29.1853358 34.3526053,37 L81.6473947,37 L81.6473947,37 Z" id="Oval-1" fill-opacity="0.8" fill="#FFFFFF" sketch:type="MSShapeGroup"></path>
            <circle id="Oval-1-Copy" fill-opacity="0.552083333" fill="#F8E81C" sketch:type="MSShapeGroup" cx="351" cy="236" r="20"></circle>
            <circle id="Oval-1-Copy-2" fill-opacity="0.416525136" fill="#D0011B" sketch:type="MSShapeGroup" cx="376" cy="236" r="20"></circle>
            <rect id="Rectangle-5" fill="#D8D8D8" sketch:type="MSShapeGroup" x="42" y="237" width="193" height="16" rx="3"></rect>
            <rect id="Rectangle-5-Copy" fill="#D8D8D8" sketch:type="MSShapeGroup" x="42" y="211" width="133" height="16" rx="3"></rect>
            <rect id="Rectangle-5-Copy-2" fill="#FFFFFF" sketch:type="MSShapeGroup" x="42" y="167" width="70" height="22" rx="5"></rect>
            <rect id="Rectangle-5-Copy-3" fill="#FFFFFF" sketch:type="MSShapeGroup" x="132" y="167" width="70" height="22" rx="5"></rect>
            <rect id="Rectangle-5-Copy-4" fill="#FFFFFF" sketch:type="MSShapeGroup" x="222" y="167" width="70" height="22" rx="5"></rect>
            <rect id="Rectangle-5-Copy-5" fill="#FFFFFF" sketch:type="MSShapeGroup" x="312" y="167" width="70" height="22" rx="5"></rect>
            <rect id="Rectangle-5-Copy-6" fill-opacity="0.693076313" fill="#4990E2" sketch:type="MSShapeGroup" x="199" y="37" width="193" height="25" rx="5"></rect>
        </g>
    </g>
</svg>